<svg width="29" height="28" viewBox="0 0 29 28" fill="none" xmlns="http://www.w3.org/2000/svg">
<path fill-rule="evenodd" clip-rule="evenodd" d="M0.199997 8.79383C0.199997 4.34498 3.67318 0.833008 8.10185 0.833008C10.518 0.833008 12.8886 1.94427 14.4994 3.79388C16.0862 1.94031 18.4871 0.833008 20.8981 0.833008C25.3268 0.833008 28.8 4.34498 28.8 8.79383C28.8 11.5521 27.5508 14.0327 25.4732 16.5987C23.4015 19.1574 20.4452 21.8728 16.9328 25.0913L16.9307 25.0932L14.5 27.2773L12.0688 25.0928L11.9905 25.0207C8.52657 21.8334 5.59811 19.1387 3.53816 16.5991C1.45747 14.0339 0.199997 11.553 0.199997 8.79383Z" fill="#B8181E"/>
</svg>
