<svg width="298" height="95" viewBox="0 0 298 95" fill="none" xmlns="http://www.w3.org/2000/svg">
<path d="M124.451 29.0495H119.106C117.814 17.3907 107.899 8.2832 95.9015 8.2832C85.0662 8.2832 75.9264 15.7113 73.3105 25.7392C71.6311 24.5604 69.5803 23.866 67.368 23.866C65.1557 23.866 63.1049 24.5604 61.4256 25.7392C58.7934 15.7113 49.6537 8.2832 38.8345 8.2832C26.8366 8.2832 16.9217 17.3907 15.6299 29.0495H10.2849V34.233H15.6299C16.9217 45.8918 26.8366 54.9993 38.8345 54.9993C50.8325 54.9993 61.6355 45.0683 62.1684 32.6666C62.8466 30.4221 64.9297 28.7911 67.3842 28.7911C69.8386 28.7911 71.9217 30.4221 72.6 32.6666C73.1328 45.0683 83.4029 54.9993 95.9338 54.9993C108.465 54.9993 117.847 45.8918 119.138 34.233H124.483V29.0495H124.451ZM38.8022 49.7996C28.7905 49.7996 20.6358 41.6449 20.6358 31.6332C20.6358 21.6214 28.7905 13.4667 38.8022 13.4667C48.814 13.4667 56.9687 21.6214 56.9687 31.6332C56.9687 41.6449 48.814 49.7996 38.8022 49.7996ZM95.9015 49.7996C85.8897 49.7996 77.735 41.6449 77.735 31.6332C77.735 21.6214 85.8897 13.4667 95.9015 13.4667C105.913 13.4667 114.068 21.6214 114.068 31.6332C114.068 41.6449 105.913 49.7996 95.9015 49.7996Z" fill="#B8181E"/>
<path d="M24.6098 79.976L19.0658 68.984H23.6498L27.4658 78.008H25.0898L28.9058 68.984H33.3938L27.7778 79.976H24.6098ZM24.1058 86V78.272H28.4018V86H24.1058ZM23.6738 74.576L24.2738 76.928H19.4978V74.576H23.6738ZM19.4978 80.576V78.248H32.9378V80.576H19.4978ZM28.5698 76.928L29.4098 74.576H32.9378V76.928H28.5698ZM38.7829 86V68.984H43.0309V86H38.7829ZM35.5429 72.56V68.984H42.7909V72.56H35.5429ZM45.7584 83.672L52.4304 76.88C52.7504 76.528 53.0144 76.216 53.2224 75.944C53.4304 75.656 53.5744 75.392 53.6544 75.152C53.7504 74.896 53.7984 74.632 53.7984 74.36C53.7984 73.752 53.5984 73.272 53.1984 72.92C52.8144 72.568 52.3024 72.392 51.6624 72.392C51.0544 72.392 50.5024 72.568 50.0064 72.92C49.5104 73.256 48.9984 73.824 48.4704 74.624L45.6624 72.128C46.3504 71.008 47.2304 70.16 48.3024 69.584C49.3744 68.992 50.6064 68.696 51.9984 68.696C53.2304 68.696 54.2944 68.92 55.1904 69.368C56.0864 69.816 56.7744 70.456 57.2544 71.288C57.7504 72.104 57.9984 73.072 57.9984 74.192C57.9984 74.864 57.9104 75.488 57.7344 76.064C57.5584 76.624 57.2784 77.184 56.8944 77.744C56.5104 78.288 55.9984 78.864 55.3584 79.472L50.9424 83.768L45.7584 83.672ZM45.7584 86V83.672L49.3344 82.424H58.3584V86H45.7584ZM60.9786 88.928L62.7786 85.544L63.9786 85.208C63.8506 85.464 63.6986 85.68 63.5226 85.856C63.3466 86.016 63.1466 86.096 62.9226 86.096C62.4266 86.096 61.9626 85.888 61.5306 85.472C61.1146 85.056 60.9066 84.528 60.9066 83.888C60.9066 83.2 61.1306 82.616 61.5786 82.136C62.0426 81.656 62.6266 81.416 63.3306 81.416C63.9706 81.416 64.5306 81.656 65.0106 82.136C65.4906 82.616 65.7306 83.2 65.7306 83.888C65.7306 84.16 65.6746 84.488 65.5626 84.872C65.4666 85.24 65.2586 85.712 64.9386 86.288L62.9226 89.984L60.9786 88.928ZM75.0788 86.264C73.6548 86.264 72.3828 85.896 71.2628 85.16C70.1428 84.408 69.2548 83.368 68.5988 82.04C67.9588 80.712 67.6388 79.184 67.6388 77.456C67.6388 75.744 67.9588 74.232 68.5988 72.92C69.2388 71.592 70.1108 70.56 71.2148 69.824C72.3348 69.072 73.5988 68.696 75.0068 68.696C76.4468 68.696 77.7268 69.072 78.8468 69.824C79.9668 70.56 80.8468 71.592 81.4868 72.92C82.1268 74.232 82.4468 75.76 82.4468 77.504C82.4468 79.232 82.1268 80.76 81.4868 82.088C80.8468 83.4 79.9668 84.424 78.8468 85.16C77.7428 85.896 76.4868 86.264 75.0788 86.264ZM75.0308 82.568C75.6868 82.568 76.2468 82.376 76.7108 81.992C77.1748 81.592 77.5268 81.016 77.7668 80.264C78.0228 79.512 78.1508 78.584 78.1508 77.48C78.1508 76.392 78.0228 75.472 77.7668 74.72C77.5268 73.968 77.1748 73.4 76.7108 73.016C76.2468 72.616 75.6788 72.416 75.0068 72.416C74.3828 72.416 73.8388 72.608 73.3748 72.992C72.9108 73.376 72.5508 73.944 72.2948 74.696C72.0548 75.448 71.9348 76.368 71.9348 77.456C71.9348 78.56 72.0548 79.496 72.2948 80.264C72.5508 81.016 72.9108 81.592 73.3748 81.992C73.8388 82.376 74.3908 82.568 75.0308 82.568ZM91.9003 86.264C90.4763 86.264 89.2043 85.896 88.0843 85.16C86.9643 84.408 86.0763 83.368 85.4203 82.04C84.7803 80.712 84.4603 79.184 84.4603 77.456C84.4603 75.744 84.7803 74.232 85.4203 72.92C86.0603 71.592 86.9323 70.56 88.0363 69.824C89.1563 69.072 90.4203 68.696 91.8283 68.696C93.2683 68.696 94.5483 69.072 95.6683 69.824C96.7883 70.56 97.6683 71.592 98.3083 72.92C98.9483 74.232 99.2683 75.76 99.2683 77.504C99.2683 79.232 98.9483 80.76 98.3083 82.088C97.6683 83.4 96.7883 84.424 95.6683 85.16C94.5643 85.896 93.3083 86.264 91.9003 86.264ZM91.8523 82.568C92.5083 82.568 93.0683 82.376 93.5323 81.992C93.9963 81.592 94.3483 81.016 94.5883 80.264C94.8443 79.512 94.9723 78.584 94.9723 77.48C94.9723 76.392 94.8443 75.472 94.5883 74.72C94.3483 73.968 93.9963 73.4 93.5323 73.016C93.0683 72.616 92.5003 72.416 91.8283 72.416C91.2043 72.416 90.6603 72.608 90.1963 72.992C89.7323 73.376 89.3723 73.944 89.1163 74.696C88.8763 75.448 88.7563 76.368 88.7563 77.456C88.7563 78.56 88.8763 79.496 89.1163 80.264C89.3723 81.016 89.7323 81.592 90.1963 81.992C90.6603 82.376 91.2123 82.568 91.8523 82.568ZM108.722 86.264C107.298 86.264 106.026 85.896 104.906 85.16C103.786 84.408 102.898 83.368 102.242 82.04C101.602 80.712 101.282 79.184 101.282 77.456C101.282 75.744 101.602 74.232 102.242 72.92C102.882 71.592 103.754 70.56 104.858 69.824C105.978 69.072 107.242 68.696 108.65 68.696C110.09 68.696 111.37 69.072 112.49 69.824C113.61 70.56 114.49 71.592 115.13 72.92C115.77 74.232 116.09 75.76 116.09 77.504C116.09 79.232 115.77 80.76 115.13 82.088C114.49 83.4 113.61 84.424 112.49 85.16C111.386 85.896 110.13 86.264 108.722 86.264ZM108.674 82.568C109.33 82.568 109.89 82.376 110.354 81.992C110.818 81.592 111.17 81.016 111.41 80.264C111.666 79.512 111.794 78.584 111.794 77.48C111.794 76.392 111.666 75.472 111.41 74.72C111.17 73.968 110.818 73.4 110.354 73.016C109.89 72.616 109.322 72.416 108.65 72.416C108.026 72.416 107.482 72.608 107.018 72.992C106.554 73.376 106.194 73.944 105.938 74.696C105.698 75.448 105.578 76.368 105.578 77.456C105.578 78.56 105.698 79.496 105.938 80.264C106.194 81.016 106.554 81.592 107.018 81.992C107.482 82.376 108.034 82.568 108.674 82.568Z" fill="#B8181E"/>
<g clip-path="url(#clip0_4334_484)">
<path d="M160.02 30.0016H150.622V20.6196H147.36V30.0016H137.978V33.2635H147.36V42.6616H150.622V33.2635H160.02V30.0016Z" fill="#B8181E"/>
</g>
<g clip-path="url(#clip1_4334_484)">
<path d="M287.73 29.0485H282.385C281.093 17.3897 271.178 8.28223 259.18 8.28223C248.345 8.28223 239.205 15.7103 236.589 25.7382C234.91 24.5594 232.859 23.865 230.646 23.865C228.434 23.865 226.383 24.5594 224.704 25.7382C222.072 15.7103 212.932 8.28223 202.113 8.28223C190.115 8.28223 180.2 17.3897 178.908 29.0485H173.563V34.232H178.908C180.2 45.8909 190.115 54.9983 202.113 54.9983C214.111 54.9983 224.914 45.0673 225.447 32.6657C226.125 30.4211 228.208 28.7901 230.663 28.7901C233.117 28.7901 235.2 30.4211 235.878 32.6657C236.411 45.0673 246.681 54.9983 259.212 54.9983C271.743 54.9983 281.125 45.8909 282.417 34.232H287.762V29.0485H287.73ZM202.081 49.7987C192.069 49.7987 183.914 41.6439 183.914 31.6322C183.914 21.6205 192.069 13.4657 202.081 13.4657C212.092 13.4657 220.247 21.6205 220.247 31.6322C220.247 41.6439 212.092 49.7987 202.081 49.7987ZM259.18 49.7987C249.168 49.7987 241.013 41.6439 241.013 31.6322C241.013 21.6205 249.168 13.4657 259.18 13.4657C269.192 13.4657 277.346 21.6205 277.346 31.6322C277.346 41.6439 269.192 49.7987 259.18 49.7987Z" fill="#B8181E"/>
<path d="M288.989 9.12361L287.407 7.52496L291.702 3.27804L293.285 4.87669L288.989 9.12361ZM286.131 0.662067L283.984 0L282.288 5.45802L284.436 6.12008L286.131 0.662067ZM297.257 11.8849L296.611 9.73723L291.137 11.3682L291.783 13.5159L297.257 11.8849Z" fill="#B8181E"/>
</g>
<path d="M186.951 79.976L181.407 68.984H185.991L189.807 78.008H187.431L191.247 68.984H195.735L190.119 79.976H186.951ZM186.447 86V78.272H190.743V86H186.447ZM186.015 74.576L186.615 76.928H181.839V74.576H186.015ZM181.839 80.576V78.248H195.279V80.576H181.839ZM190.911 76.928L191.751 74.576H195.279V76.928H190.911ZM201.124 86V68.984H205.372V86H201.124ZM197.884 72.56V68.984H205.132V72.56H197.884ZM215.66 86.264C214.236 86.264 212.964 85.896 211.844 85.16C210.724 84.408 209.836 83.368 209.18 82.04C208.54 80.712 208.22 79.184 208.22 77.456C208.22 75.744 208.54 74.232 209.18 72.92C209.82 71.592 210.692 70.56 211.796 69.824C212.916 69.072 214.18 68.696 215.588 68.696C217.028 68.696 218.308 69.072 219.428 69.824C220.548 70.56 221.428 71.592 222.068 72.92C222.708 74.232 223.028 75.76 223.028 77.504C223.028 79.232 222.708 80.76 222.068 82.088C221.428 83.4 220.548 84.424 219.428 85.16C218.324 85.896 217.068 86.264 215.66 86.264ZM215.612 82.568C216.268 82.568 216.828 82.376 217.292 81.992C217.756 81.592 218.108 81.016 218.348 80.264C218.604 79.512 218.732 78.584 218.732 77.48C218.732 76.392 218.604 75.472 218.348 74.72C218.108 73.968 217.756 73.4 217.292 73.016C216.828 72.616 216.26 72.416 215.588 72.416C214.964 72.416 214.42 72.608 213.956 72.992C213.492 73.376 213.132 73.944 212.876 74.696C212.636 75.448 212.516 76.368 212.516 77.456C212.516 78.56 212.636 79.496 212.876 80.264C213.132 81.016 213.492 81.592 213.956 81.992C214.42 82.376 214.972 82.568 215.612 82.568ZM225.195 88.928L226.995 85.544L228.195 85.208C228.067 85.464 227.915 85.68 227.739 85.856C227.563 86.016 227.363 86.096 227.139 86.096C226.643 86.096 226.179 85.888 225.747 85.472C225.331 85.056 225.123 84.528 225.123 83.888C225.123 83.2 225.347 82.616 225.795 82.136C226.259 81.656 226.843 81.416 227.547 81.416C228.187 81.416 228.747 81.656 229.227 82.136C229.707 82.616 229.947 83.2 229.947 83.888C229.947 84.16 229.891 84.488 229.779 84.872C229.683 85.24 229.475 85.712 229.155 86.288L227.139 89.984L225.195 88.928ZM239.295 86.264C237.871 86.264 236.599 85.896 235.479 85.16C234.359 84.408 233.471 83.368 232.815 82.04C232.175 80.712 231.855 79.184 231.855 77.456C231.855 75.744 232.175 74.232 232.815 72.92C233.455 71.592 234.327 70.56 235.431 69.824C236.551 69.072 237.815 68.696 239.223 68.696C240.663 68.696 241.943 69.072 243.063 69.824C244.183 70.56 245.063 71.592 245.703 72.92C246.343 74.232 246.663 75.76 246.663 77.504C246.663 79.232 246.343 80.76 245.703 82.088C245.063 83.4 244.183 84.424 243.063 85.16C241.959 85.896 240.703 86.264 239.295 86.264ZM239.247 82.568C239.903 82.568 240.463 82.376 240.927 81.992C241.391 81.592 241.743 81.016 241.983 80.264C242.239 79.512 242.367 78.584 242.367 77.48C242.367 76.392 242.239 75.472 241.983 74.72C241.743 73.968 241.391 73.4 240.927 73.016C240.463 72.616 239.895 72.416 239.223 72.416C238.599 72.416 238.055 72.608 237.591 72.992C237.127 73.376 236.767 73.944 236.511 74.696C236.271 75.448 236.151 76.368 236.151 77.456C236.151 78.56 236.271 79.496 236.511 80.264C236.767 81.016 237.127 81.592 237.591 81.992C238.055 82.376 238.607 82.568 239.247 82.568ZM256.117 86.264C254.693 86.264 253.421 85.896 252.301 85.16C251.181 84.408 250.293 83.368 249.637 82.04C248.997 80.712 248.677 79.184 248.677 77.456C248.677 75.744 248.997 74.232 249.637 72.92C250.277 71.592 251.149 70.56 252.253 69.824C253.373 69.072 254.637 68.696 256.045 68.696C257.485 68.696 258.765 69.072 259.885 69.824C261.005 70.56 261.885 71.592 262.525 72.92C263.165 74.232 263.485 75.76 263.485 77.504C263.485 79.232 263.165 80.76 262.525 82.088C261.885 83.4 261.005 84.424 259.885 85.16C258.781 85.896 257.525 86.264 256.117 86.264ZM256.069 82.568C256.725 82.568 257.285 82.376 257.749 81.992C258.213 81.592 258.565 81.016 258.805 80.264C259.061 79.512 259.189 78.584 259.189 77.48C259.189 76.392 259.061 75.472 258.805 74.72C258.565 73.968 258.213 73.4 257.749 73.016C257.285 72.616 256.717 72.416 256.045 72.416C255.421 72.416 254.877 72.608 254.413 72.992C253.949 73.376 253.589 73.944 253.333 74.696C253.093 75.448 252.973 76.368 252.973 77.456C252.973 78.56 253.093 79.496 253.333 80.264C253.589 81.016 253.949 81.592 254.413 81.992C254.877 82.376 255.429 82.568 256.069 82.568ZM272.938 86.264C271.514 86.264 270.242 85.896 269.122 85.16C268.002 84.408 267.114 83.368 266.458 82.04C265.818 80.712 265.498 79.184 265.498 77.456C265.498 75.744 265.818 74.232 266.458 72.92C267.098 71.592 267.97 70.56 269.074 69.824C270.194 69.072 271.458 68.696 272.866 68.696C274.306 68.696 275.586 69.072 276.706 69.824C277.826 70.56 278.706 71.592 279.346 72.92C279.986 74.232 280.306 75.76 280.306 77.504C280.306 79.232 279.986 80.76 279.346 82.088C278.706 83.4 277.826 84.424 276.706 85.16C275.602 85.896 274.346 86.264 272.938 86.264ZM272.89 82.568C273.546 82.568 274.106 82.376 274.57 81.992C275.034 81.592 275.386 81.016 275.626 80.264C275.882 79.512 276.01 78.584 276.01 77.48C276.01 76.392 275.882 75.472 275.626 74.72C275.386 73.968 275.034 73.4 274.57 73.016C274.106 72.616 273.538 72.416 272.866 72.416C272.242 72.416 271.698 72.608 271.234 72.992C270.77 73.376 270.41 73.944 270.154 74.696C269.914 75.448 269.794 76.368 269.794 77.456C269.794 78.56 269.914 79.496 270.154 80.264C270.41 81.016 270.77 81.592 271.234 81.992C271.698 82.376 272.25 82.568 272.89 82.568Z" fill="#B8181E"/>
<defs>
<clipPath id="clip0_4334_484">
<rect width="22.042" height="55" fill="white" transform="translate(137.979)"/>
</clipPath>
<clipPath id="clip1_4334_484">
<rect width="133.237" height="55" fill="white" transform="translate(164.021)"/>
</clipPath>
</defs>
</svg>
